<mxfile host="app.diagrams.net" modified="2024-04-22T20:07:17.484Z" agent="Mozilla/5.0 (Windows NT 10.0; Win64; x64) AppleWebKit/537.36 (KHTML, like Gecko) Chrome/124.0.0.0 Safari/537.36" etag="YMKAJzm5I6GaiPociAGx" version="24.2.5" type="device">
  <diagram name="PÃ¡gina-1" id="sGbsREWsHjC3F5GEO4Eu">
    <mxGraphModel dx="1434" dy="772" grid="1" gridSize="10" guides="1" tooltips="1" connect="1" arrows="1" fold="1" page="1" pageScale="1" pageWidth="1169" pageHeight="827" math="0" shadow="0">
      <root>
        <mxCell id="0" />
        <mxCell id="1" parent="0" />
        <mxCell id="EqJ2xSsujDH2mjNiBFDZ-3" value="Admin" style="html=1;dashed=0;whiteSpace=wrap;" parent="1" vertex="1">
          <mxGeometry x="175" y="180" width="100" height="50" as="geometry" />
        </mxCell>
        <mxCell id="EqJ2xSsujDH2mjNiBFDZ-5" value="v" style="shape=requiredInterface;html=1;verticalLabelPosition=bottom;dashed=1;strokeColor=#FF3333;strokeWidth=2;fillColor=none;fontColor=#FF3333;align=center;verticalAlign=top;labelPosition=center;" parent="1" vertex="1">
          <mxGeometry x="320" y="70" width="20" height="280" as="geometry" />
        </mxCell>
        <mxCell id="EqJ2xSsujDH2mjNiBFDZ-7" value="" style="shape=requiredInterface;html=1;verticalLabelPosition=bottom;dashed=1;strokeColor=#FF3333;strokeWidth=2;fillColor=none;fontColor=#FF3333;align=center;verticalAlign=top;labelPosition=center;" parent="1" vertex="1">
          <mxGeometry x="510" y="70" width="20" height="280" as="geometry" />
        </mxCell>
        <mxCell id="EqJ2xSsujDH2mjNiBFDZ-9" value="" style="shape=requiredInterface;html=1;verticalLabelPosition=bottom;dashed=1;strokeColor=#FF3333;strokeWidth=2;fillColor=none;fontColor=#FF3333;align=center;verticalAlign=top;labelPosition=center;" parent="1" vertex="1">
          <mxGeometry x="710" y="72" width="20" height="276" as="geometry" />
        </mxCell>
        <mxCell id="EqJ2xSsujDH2mjNiBFDZ-11" value="User / Frontend Boundary" style="text;html=1;align=center;verticalAlign=middle;whiteSpace=wrap;rounded=0;" parent="1" vertex="1">
          <mxGeometry x="275" y="30" width="110" height="30" as="geometry" />
        </mxCell>
        <mxCell id="EqJ2xSsujDH2mjNiBFDZ-12" value="Database" style="html=1;dashed=0;whiteSpace=wrap;shape=partialRectangle;right=0;left=0;" parent="1" vertex="1">
          <mxGeometry x="770" y="190" width="100" height="30" as="geometry" />
        </mxCell>
        <mxCell id="EqJ2xSsujDH2mjNiBFDZ-13" value="Frontend / Backend Boundary" style="text;html=1;align=center;verticalAlign=middle;whiteSpace=wrap;rounded=0;" parent="1" vertex="1">
          <mxGeometry x="465" y="30" width="110" height="30" as="geometry" />
        </mxCell>
        <mxCell id="EqJ2xSsujDH2mjNiBFDZ-14" value="Backend / Database Boundary" style="text;html=1;align=center;verticalAlign=middle;whiteSpace=wrap;rounded=0;" parent="1" vertex="1">
          <mxGeometry x="660" y="30" width="120" height="30" as="geometry" />
        </mxCell>
        <mxCell id="EqJ2xSsujDH2mjNiBFDZ-22" value="Return&lt;div&gt;Users&lt;/div&gt;" style="shape=ellipse;html=1;dashed=0;whiteSpace=wrap;perimeter=ellipsePerimeter;" parent="1" vertex="1">
          <mxGeometry x="600" y="220" width="60" height="60" as="geometry" />
        </mxCell>
        <mxCell id="EqJ2xSsujDH2mjNiBFDZ-23" value="Get Users" style="shape=ellipse;html=1;dashed=0;whiteSpace=wrap;perimeter=ellipsePerimeter;" parent="1" vertex="1">
          <mxGeometry x="400" y="110" width="60" height="60" as="geometry" />
        </mxCell>
        <mxCell id="EqJ2xSsujDH2mjNiBFDZ-24" value="Show Users" style="shape=ellipse;html=1;dashed=0;whiteSpace=wrap;perimeter=ellipsePerimeter;" parent="1" vertex="1">
          <mxGeometry x="400" y="220" width="60" height="60" as="geometry" />
        </mxCell>
        <mxCell id="EqJ2xSsujDH2mjNiBFDZ-26" value="" style="endArrow=classic;html=1;rounded=0;exitX=1;exitY=0.25;exitDx=0;exitDy=0;entryX=0;entryY=0.5;entryDx=0;entryDy=0;" parent="1" source="EqJ2xSsujDH2mjNiBFDZ-3" target="EqJ2xSsujDH2mjNiBFDZ-23" edge="1">
          <mxGeometry width="50" height="50" relative="1" as="geometry">
            <mxPoint x="280" y="212.5" as="sourcePoint" />
            <mxPoint x="410" y="140" as="targetPoint" />
          </mxGeometry>
        </mxCell>
        <mxCell id="EqJ2xSsujDH2mjNiBFDZ-27" value="search&lt;div&gt;parameters&lt;/div&gt;" style="edgeLabel;html=1;align=center;verticalAlign=middle;resizable=0;points=[];" parent="EqJ2xSsujDH2mjNiBFDZ-26" vertex="1" connectable="0">
          <mxGeometry x="0.2352" y="-1" relative="1" as="geometry">
            <mxPoint x="26" y="18" as="offset" />
          </mxGeometry>
        </mxCell>
        <mxCell id="EqJ2xSsujDH2mjNiBFDZ-28" value="users" style="endArrow=classic;html=1;rounded=0;exitX=0;exitY=0.5;exitDx=0;exitDy=0;entryX=1;entryY=0.75;entryDx=0;entryDy=0;" parent="1" source="EqJ2xSsujDH2mjNiBFDZ-24" target="EqJ2xSsujDH2mjNiBFDZ-3" edge="1">
          <mxGeometry x="0.4842" y="15" width="50" height="50" relative="1" as="geometry">
            <mxPoint x="350" y="370" as="sourcePoint" />
            <mxPoint x="280" y="220" as="targetPoint" />
            <mxPoint y="-1" as="offset" />
          </mxGeometry>
        </mxCell>
        <mxCell id="EqJ2xSsujDH2mjNiBFDZ-31" value="&lt;div&gt;Get Users&lt;/div&gt;" style="shape=ellipse;html=1;dashed=0;whiteSpace=wrap;perimeter=ellipsePerimeter;" parent="1" vertex="1">
          <mxGeometry x="600" y="110" width="60" height="60" as="geometry" />
        </mxCell>
        <mxCell id="EqJ2xSsujDH2mjNiBFDZ-32" value="" style="endArrow=classic;html=1;rounded=0;exitX=1;exitY=0.5;exitDx=0;exitDy=0;entryX=0;entryY=0.5;entryDx=0;entryDy=0;" parent="1" source="EqJ2xSsujDH2mjNiBFDZ-23" target="EqJ2xSsujDH2mjNiBFDZ-31" edge="1">
          <mxGeometry width="50" height="50" relative="1" as="geometry">
            <mxPoint x="490" y="220" as="sourcePoint" />
            <mxPoint x="540" y="170" as="targetPoint" />
          </mxGeometry>
        </mxCell>
        <mxCell id="EqJ2xSsujDH2mjNiBFDZ-35" value="" style="endArrow=classic;html=1;rounded=0;exitX=1;exitY=0.5;exitDx=0;exitDy=0;entryX=0.5;entryY=0;entryDx=0;entryDy=0;" parent="1" source="EqJ2xSsujDH2mjNiBFDZ-31" target="EqJ2xSsujDH2mjNiBFDZ-12" edge="1">
          <mxGeometry width="50" height="50" relative="1" as="geometry">
            <mxPoint x="790" y="380" as="sourcePoint" />
            <mxPoint x="840" y="330" as="targetPoint" />
          </mxGeometry>
        </mxCell>
        <mxCell id="EqJ2xSsujDH2mjNiBFDZ-41" value="" style="endArrow=classic;html=1;rounded=0;exitX=0;exitY=0.5;exitDx=0;exitDy=0;entryX=1;entryY=0.5;entryDx=0;entryDy=0;" parent="1" source="EqJ2xSsujDH2mjNiBFDZ-22" target="EqJ2xSsujDH2mjNiBFDZ-24" edge="1">
          <mxGeometry width="50" height="50" relative="1" as="geometry">
            <mxPoint x="580" y="315" as="sourcePoint" />
            <mxPoint x="550" y="400" as="targetPoint" />
          </mxGeometry>
        </mxCell>
        <mxCell id="EqJ2xSsujDH2mjNiBFDZ-42" value="users" style="edgeLabel;html=1;align=center;verticalAlign=middle;resizable=0;points=[];" parent="EqJ2xSsujDH2mjNiBFDZ-41" vertex="1" connectable="0">
          <mxGeometry x="0.5515" relative="1" as="geometry">
            <mxPoint x="-1" y="19" as="offset" />
          </mxGeometry>
        </mxCell>
        <mxCell id="yCfjWie0wwJFAbQvrw_H-2" value="search&lt;div&gt;parameters&lt;/div&gt;" style="edgeLabel;html=1;align=center;verticalAlign=middle;resizable=0;points=[];" parent="1" vertex="1" connectable="0">
          <mxGeometry x="549.9955554421825" y="150.00492065111672" as="geometry">
            <mxPoint x="17" y="11" as="offset" />
          </mxGeometry>
        </mxCell>
        <mxCell id="gsee9E6R80b9WV6ubArY-3" value="query" style="edgeLabel;html=1;align=center;verticalAlign=middle;resizable=0;points=[];" parent="1" vertex="1" connectable="0">
          <mxGeometry x="769.9984769831187" y="150.00596497061457" as="geometry">
            <mxPoint x="3" y="5" as="offset" />
          </mxGeometry>
        </mxCell>
        <mxCell id="q4REHl3hCyseS-328a82-1" value="" style="endArrow=classic;html=1;rounded=0;exitX=0.5;exitY=1;exitDx=0;exitDy=0;entryX=1;entryY=0.5;entryDx=0;entryDy=0;" parent="1" source="EqJ2xSsujDH2mjNiBFDZ-12" target="EqJ2xSsujDH2mjNiBFDZ-22" edge="1">
          <mxGeometry width="50" height="50" relative="1" as="geometry">
            <mxPoint x="800" y="340" as="sourcePoint" />
            <mxPoint x="850" y="290" as="targetPoint" />
          </mxGeometry>
        </mxCell>
        <mxCell id="q4REHl3hCyseS-328a82-2" value="users" style="edgeLabel;html=1;align=center;verticalAlign=middle;resizable=0;points=[];" parent="q4REHl3hCyseS-328a82-1" vertex="1" connectable="0">
          <mxGeometry x="-0.0831" y="1" relative="1" as="geometry">
            <mxPoint x="-47" y="25" as="offset" />
          </mxGeometry>
        </mxCell>
      </root>
    </mxGraphModel>
  </diagram>
</mxfile>
